<mxfile host="app.diagrams.net" modified="2023-05-12T02:08:56.347Z" agent="Mozilla/5.0 (Windows NT 10.0; Win64; x64) AppleWebKit/537.36 (KHTML, like Gecko) Chrome/113.0.0.0 Safari/537.36 Edg/113.0.1774.35" etag="5U-mOAbOKVkAHSujy51j" version="21.2.2" type="github">
  <diagram name="第 1 页" id="nbi5fBf2Bmrbjadmzqlr">
    <mxGraphModel dx="996" dy="549" grid="1" gridSize="10" guides="1" tooltips="1" connect="1" arrows="1" fold="1" page="1" pageScale="1" pageWidth="827" pageHeight="1169" math="0" shadow="0">
      <root>
        <mxCell id="0" />
        <mxCell id="1" parent="0" />
        <mxCell id="J7fFwv-MhPljxE2RySfx-1" value="" style="rounded=0;whiteSpace=wrap;html=1;" vertex="1" parent="1">
          <mxGeometry x="40" y="10" width="760" height="490" as="geometry" />
        </mxCell>
        <mxCell id="J7fFwv-MhPljxE2RySfx-2" value="" style="endArrow=none;dashed=1;html=1;rounded=0;exitX=1.002;exitY=0.102;exitDx=0;exitDy=0;exitPerimeter=0;entryX=0;entryY=0.101;entryDx=0;entryDy=0;entryPerimeter=0;" edge="1" parent="1" source="J7fFwv-MhPljxE2RySfx-1" target="J7fFwv-MhPljxE2RySfx-1">
          <mxGeometry width="50" height="50" relative="1" as="geometry">
            <mxPoint x="390" y="310" as="sourcePoint" />
            <mxPoint x="440" y="260" as="targetPoint" />
            <Array as="points" />
          </mxGeometry>
        </mxCell>
        <mxCell id="J7fFwv-MhPljxE2RySfx-6" style="edgeStyle=orthogonalEdgeStyle;rounded=0;orthogonalLoop=1;jettySize=auto;html=1;exitX=0.5;exitY=0;exitDx=0;exitDy=0;entryX=0.5;entryY=1;entryDx=0;entryDy=0;" edge="1" parent="1" source="J7fFwv-MhPljxE2RySfx-3" target="J7fFwv-MhPljxE2RySfx-4">
          <mxGeometry relative="1" as="geometry" />
        </mxCell>
        <mxCell id="J7fFwv-MhPljxE2RySfx-7" style="edgeStyle=orthogonalEdgeStyle;rounded=0;orthogonalLoop=1;jettySize=auto;html=1;exitX=0.5;exitY=1;exitDx=0;exitDy=0;entryX=0.5;entryY=0;entryDx=0;entryDy=0;" edge="1" parent="1" source="J7fFwv-MhPljxE2RySfx-3" target="J7fFwv-MhPljxE2RySfx-5">
          <mxGeometry relative="1" as="geometry" />
        </mxCell>
        <mxCell id="J7fFwv-MhPljxE2RySfx-15" style="edgeStyle=orthogonalEdgeStyle;rounded=0;orthogonalLoop=1;jettySize=auto;html=1;exitX=1;exitY=0.5;exitDx=0;exitDy=0;entryX=0;entryY=0.5;entryDx=0;entryDy=0;" edge="1" parent="1" source="J7fFwv-MhPljxE2RySfx-3" target="J7fFwv-MhPljxE2RySfx-9">
          <mxGeometry relative="1" as="geometry" />
        </mxCell>
        <mxCell id="J7fFwv-MhPljxE2RySfx-3" value="&lt;font face=&quot;Times New Roman&quot; style=&quot;font-size: 18px;&quot;&gt;城市群信息网络&lt;br&gt;结构演变&lt;/font&gt;" style="ellipse;whiteSpace=wrap;html=1;fillColor=#fff2cc;strokeColor=#d6b656;" vertex="1" parent="1">
          <mxGeometry x="50" y="240" width="150" height="80" as="geometry" />
        </mxCell>
        <mxCell id="J7fFwv-MhPljxE2RySfx-14" style="edgeStyle=orthogonalEdgeStyle;rounded=0;orthogonalLoop=1;jettySize=auto;html=1;exitX=1;exitY=0.5;exitDx=0;exitDy=0;" edge="1" parent="1" source="J7fFwv-MhPljxE2RySfx-4" target="J7fFwv-MhPljxE2RySfx-10">
          <mxGeometry relative="1" as="geometry" />
        </mxCell>
        <mxCell id="J7fFwv-MhPljxE2RySfx-4" value="&lt;font style=&quot;font-size: 18px;&quot;&gt;网络特征如何演变&lt;/font&gt;" style="rounded=1;whiteSpace=wrap;html=1;fillColor=#ffe6cc;strokeColor=#d79b00;" vertex="1" parent="1">
          <mxGeometry x="50" y="160" width="150" height="60" as="geometry" />
        </mxCell>
        <mxCell id="J7fFwv-MhPljxE2RySfx-13" style="edgeStyle=orthogonalEdgeStyle;rounded=0;orthogonalLoop=1;jettySize=auto;html=1;exitX=1;exitY=0.5;exitDx=0;exitDy=0;entryX=0;entryY=0.5;entryDx=0;entryDy=0;" edge="1" parent="1" source="J7fFwv-MhPljxE2RySfx-5" target="J7fFwv-MhPljxE2RySfx-11">
          <mxGeometry relative="1" as="geometry" />
        </mxCell>
        <mxCell id="J7fFwv-MhPljxE2RySfx-5" value="&lt;font style=&quot;font-size: 18px;&quot;&gt;驱动因素探索分析&lt;/font&gt;" style="rounded=1;whiteSpace=wrap;html=1;fillColor=#ffe6cc;strokeColor=#d79b00;" vertex="1" parent="1">
          <mxGeometry x="50" y="340" width="150" height="60" as="geometry" />
        </mxCell>
        <mxCell id="J7fFwv-MhPljxE2RySfx-16" style="edgeStyle=orthogonalEdgeStyle;rounded=0;orthogonalLoop=1;jettySize=auto;html=1;exitX=0.5;exitY=0;exitDx=0;exitDy=0;entryX=0.5;entryY=1;entryDx=0;entryDy=0;" edge="1" parent="1" source="J7fFwv-MhPljxE2RySfx-9" target="J7fFwv-MhPljxE2RySfx-10">
          <mxGeometry relative="1" as="geometry" />
        </mxCell>
        <mxCell id="J7fFwv-MhPljxE2RySfx-17" style="edgeStyle=orthogonalEdgeStyle;rounded=0;orthogonalLoop=1;jettySize=auto;html=1;exitX=0.5;exitY=1;exitDx=0;exitDy=0;entryX=0.5;entryY=0;entryDx=0;entryDy=0;" edge="1" parent="1" source="J7fFwv-MhPljxE2RySfx-9" target="J7fFwv-MhPljxE2RySfx-11">
          <mxGeometry relative="1" as="geometry" />
        </mxCell>
        <mxCell id="J7fFwv-MhPljxE2RySfx-9" value="&lt;font style=&quot;font-size: 18px;&quot;&gt;百度指数信息网络&lt;/font&gt;" style="rounded=1;whiteSpace=wrap;html=1;fillColor=#d5e8d4;strokeColor=#82b366;" vertex="1" parent="1">
          <mxGeometry x="220" y="250" width="150" height="60" as="geometry" />
        </mxCell>
        <mxCell id="J7fFwv-MhPljxE2RySfx-21" style="edgeStyle=orthogonalEdgeStyle;rounded=0;orthogonalLoop=1;jettySize=auto;html=1;exitX=1;exitY=0.5;exitDx=0;exitDy=0;entryX=0;entryY=0.5;entryDx=0;entryDy=0;" edge="1" parent="1" source="J7fFwv-MhPljxE2RySfx-10" target="J7fFwv-MhPljxE2RySfx-19">
          <mxGeometry relative="1" as="geometry">
            <Array as="points">
              <mxPoint x="380" y="190" />
              <mxPoint x="380" y="100" />
            </Array>
          </mxGeometry>
        </mxCell>
        <mxCell id="J7fFwv-MhPljxE2RySfx-22" style="edgeStyle=orthogonalEdgeStyle;rounded=0;orthogonalLoop=1;jettySize=auto;html=1;exitX=1;exitY=0.5;exitDx=0;exitDy=0;entryX=0;entryY=0.5;entryDx=0;entryDy=0;" edge="1" parent="1" source="J7fFwv-MhPljxE2RySfx-10" target="J7fFwv-MhPljxE2RySfx-18">
          <mxGeometry relative="1" as="geometry" />
        </mxCell>
        <mxCell id="J7fFwv-MhPljxE2RySfx-23" style="edgeStyle=orthogonalEdgeStyle;rounded=0;orthogonalLoop=1;jettySize=auto;html=1;exitX=1;exitY=0.5;exitDx=0;exitDy=0;entryX=0;entryY=0.5;entryDx=0;entryDy=0;" edge="1" parent="1" source="J7fFwv-MhPljxE2RySfx-10" target="J7fFwv-MhPljxE2RySfx-20">
          <mxGeometry relative="1" as="geometry">
            <Array as="points">
              <mxPoint x="380" y="190" />
              <mxPoint x="380" y="280" />
            </Array>
          </mxGeometry>
        </mxCell>
        <mxCell id="J7fFwv-MhPljxE2RySfx-10" value="&lt;font style=&quot;font-size: 18px;&quot;&gt;社会网络分析&lt;/font&gt;" style="rounded=1;whiteSpace=wrap;html=1;fillColor=#dae8fc;strokeColor=#6c8ebf;" vertex="1" parent="1">
          <mxGeometry x="220" y="160" width="150" height="60" as="geometry" />
        </mxCell>
        <mxCell id="J7fFwv-MhPljxE2RySfx-26" style="edgeStyle=orthogonalEdgeStyle;rounded=0;orthogonalLoop=1;jettySize=auto;html=1;exitX=1;exitY=0.5;exitDx=0;exitDy=0;entryX=0;entryY=0.5;entryDx=0;entryDy=0;" edge="1" parent="1" source="J7fFwv-MhPljxE2RySfx-11" target="J7fFwv-MhPljxE2RySfx-25">
          <mxGeometry relative="1" as="geometry" />
        </mxCell>
        <mxCell id="J7fFwv-MhPljxE2RySfx-11" value="&lt;font style=&quot;font-size: 18px;&quot;&gt;地理探测器&lt;/font&gt;" style="rounded=1;whiteSpace=wrap;html=1;fillColor=#dae8fc;strokeColor=#6c8ebf;" vertex="1" parent="1">
          <mxGeometry x="220" y="340" width="150" height="60" as="geometry" />
        </mxCell>
        <mxCell id="J7fFwv-MhPljxE2RySfx-33" style="edgeStyle=orthogonalEdgeStyle;rounded=0;orthogonalLoop=1;jettySize=auto;html=1;exitX=1;exitY=0.5;exitDx=0;exitDy=0;entryX=0;entryY=0.5;entryDx=0;entryDy=0;" edge="1" parent="1" source="J7fFwv-MhPljxE2RySfx-18" target="J7fFwv-MhPljxE2RySfx-30">
          <mxGeometry relative="1" as="geometry">
            <Array as="points">
              <mxPoint x="560" y="190" />
              <mxPoint x="560" y="280" />
            </Array>
          </mxGeometry>
        </mxCell>
        <mxCell id="J7fFwv-MhPljxE2RySfx-18" value="&lt;font style=&quot;font-size: 18px;&quot;&gt;位序规模结构&lt;/font&gt;" style="rounded=1;whiteSpace=wrap;html=1;fillColor=#b1ddf0;strokeColor=#10739e;" vertex="1" parent="1">
          <mxGeometry x="390" y="160" width="150" height="60" as="geometry" />
        </mxCell>
        <mxCell id="J7fFwv-MhPljxE2RySfx-32" style="edgeStyle=orthogonalEdgeStyle;rounded=0;orthogonalLoop=1;jettySize=auto;html=1;exitX=1;exitY=0.5;exitDx=0;exitDy=0;entryX=0;entryY=0.5;entryDx=0;entryDy=0;" edge="1" parent="1" source="J7fFwv-MhPljxE2RySfx-19" target="J7fFwv-MhPljxE2RySfx-29">
          <mxGeometry relative="1" as="geometry">
            <Array as="points">
              <mxPoint x="560" y="100" />
              <mxPoint x="560" y="190" />
            </Array>
          </mxGeometry>
        </mxCell>
        <mxCell id="J7fFwv-MhPljxE2RySfx-19" value="&lt;font style=&quot;font-size: 18px;&quot;&gt;网络总体特征&lt;/font&gt;" style="rounded=1;whiteSpace=wrap;html=1;fillColor=#b1ddf0;strokeColor=#10739e;" vertex="1" parent="1">
          <mxGeometry x="390" y="70" width="150" height="60" as="geometry" />
        </mxCell>
        <mxCell id="J7fFwv-MhPljxE2RySfx-34" style="edgeStyle=orthogonalEdgeStyle;rounded=0;orthogonalLoop=1;jettySize=auto;html=1;exitX=1;exitY=0.5;exitDx=0;exitDy=0;entryX=0;entryY=0.5;entryDx=0;entryDy=0;" edge="1" parent="1" source="J7fFwv-MhPljxE2RySfx-20" target="J7fFwv-MhPljxE2RySfx-31">
          <mxGeometry relative="1" as="geometry">
            <Array as="points">
              <mxPoint x="560" y="280" />
              <mxPoint x="560" y="370" />
            </Array>
          </mxGeometry>
        </mxCell>
        <mxCell id="J7fFwv-MhPljxE2RySfx-20" value="&lt;font style=&quot;font-size: 18px;&quot;&gt;节点特征&lt;/font&gt;" style="rounded=1;whiteSpace=wrap;html=1;fillColor=#b1ddf0;strokeColor=#10739e;" vertex="1" parent="1">
          <mxGeometry x="390" y="250" width="150" height="60" as="geometry" />
        </mxCell>
        <mxCell id="J7fFwv-MhPljxE2RySfx-35" style="edgeStyle=orthogonalEdgeStyle;rounded=0;orthogonalLoop=1;jettySize=auto;html=1;exitX=1;exitY=0.5;exitDx=0;exitDy=0;entryX=0;entryY=0.5;entryDx=0;entryDy=0;" edge="1" parent="1" source="J7fFwv-MhPljxE2RySfx-25" target="J7fFwv-MhPljxE2RySfx-31">
          <mxGeometry relative="1" as="geometry" />
        </mxCell>
        <mxCell id="J7fFwv-MhPljxE2RySfx-25" value="&lt;font style=&quot;font-size: 18px;&quot;&gt;节点中心性&lt;br&gt;驱动因素演变&lt;/font&gt;" style="rounded=1;whiteSpace=wrap;html=1;fillColor=#b1ddf0;strokeColor=#10739e;" vertex="1" parent="1">
          <mxGeometry x="390" y="340" width="150" height="60" as="geometry" />
        </mxCell>
        <mxCell id="J7fFwv-MhPljxE2RySfx-28" style="edgeStyle=orthogonalEdgeStyle;rounded=0;orthogonalLoop=1;jettySize=auto;html=1;exitX=0.5;exitY=0;exitDx=0;exitDy=0;entryX=0.5;entryY=1;entryDx=0;entryDy=0;" edge="1" parent="1" source="J7fFwv-MhPljxE2RySfx-27" target="J7fFwv-MhPljxE2RySfx-11">
          <mxGeometry relative="1" as="geometry" />
        </mxCell>
        <mxCell id="J7fFwv-MhPljxE2RySfx-27" value="&lt;font style=&quot;font-size: 18px;&quot;&gt;社会经济数据&lt;/font&gt;" style="rounded=1;whiteSpace=wrap;html=1;fillColor=#d5e8d4;strokeColor=#82b366;" vertex="1" parent="1">
          <mxGeometry x="220" y="430" width="150" height="60" as="geometry" />
        </mxCell>
        <mxCell id="J7fFwv-MhPljxE2RySfx-29" value="&lt;font style=&quot;font-size: 18px;&quot;&gt;城市群信息网络演变模式和发展阶段总结&lt;/font&gt;" style="rounded=1;whiteSpace=wrap;html=1;fillColor=#d0cee2;strokeColor=#56517e;" vertex="1" parent="1">
          <mxGeometry x="570" y="160" width="200" height="60" as="geometry" />
        </mxCell>
        <mxCell id="J7fFwv-MhPljxE2RySfx-30" value="&lt;font style=&quot;font-size: 18px;&quot;&gt;位序规模结构的比较&lt;br&gt;和深入分析&lt;/font&gt;" style="rounded=1;whiteSpace=wrap;html=1;fillColor=#d0cee2;strokeColor=#56517e;" vertex="1" parent="1">
          <mxGeometry x="570" y="250" width="200" height="60" as="geometry" />
        </mxCell>
        <mxCell id="J7fFwv-MhPljxE2RySfx-31" value="&lt;font style=&quot;font-size: 18px;&quot;&gt;城市群一体化、信息化&lt;br&gt;发展和规划建议&lt;/font&gt;" style="rounded=1;whiteSpace=wrap;html=1;fillColor=#d0cee2;strokeColor=#56517e;" vertex="1" parent="1">
          <mxGeometry x="570" y="340" width="200" height="60" as="geometry" />
        </mxCell>
        <mxCell id="J7fFwv-MhPljxE2RySfx-36" value="&lt;font face=&quot;Times New Roman&quot; style=&quot;font-size: 22px;&quot;&gt;&lt;b&gt;研究问题&lt;/b&gt;&lt;/font&gt;" style="text;html=1;strokeColor=none;fillColor=none;align=center;verticalAlign=middle;whiteSpace=wrap;rounded=0;" vertex="1" parent="1">
          <mxGeometry x="67.5" y="20" width="115" height="30" as="geometry" />
        </mxCell>
        <mxCell id="J7fFwv-MhPljxE2RySfx-38" value="&lt;font face=&quot;Times New Roman&quot; style=&quot;font-size: 22px;&quot;&gt;&lt;b&gt;数据和方法&lt;/b&gt;&lt;/font&gt;" style="text;html=1;strokeColor=none;fillColor=none;align=center;verticalAlign=middle;whiteSpace=wrap;rounded=0;" vertex="1" parent="1">
          <mxGeometry x="237.5" y="20" width="115" height="30" as="geometry" />
        </mxCell>
        <mxCell id="J7fFwv-MhPljxE2RySfx-39" value="&lt;font face=&quot;Times New Roman&quot; style=&quot;font-size: 22px;&quot;&gt;&lt;b&gt;研究结果&lt;/b&gt;&lt;/font&gt;" style="text;html=1;strokeColor=none;fillColor=none;align=center;verticalAlign=middle;whiteSpace=wrap;rounded=0;" vertex="1" parent="1">
          <mxGeometry x="407.5" y="20" width="115" height="30" as="geometry" />
        </mxCell>
        <mxCell id="J7fFwv-MhPljxE2RySfx-40" value="&lt;font face=&quot;Times New Roman&quot; style=&quot;font-size: 22px;&quot;&gt;&lt;b&gt;讨论和政策建议&lt;/b&gt;&lt;/font&gt;" style="text;html=1;strokeColor=none;fillColor=none;align=center;verticalAlign=middle;whiteSpace=wrap;rounded=0;" vertex="1" parent="1">
          <mxGeometry x="591.25" y="20" width="157.5" height="30" as="geometry" />
        </mxCell>
      </root>
    </mxGraphModel>
  </diagram>
</mxfile>
